<svg id="Capa_1" data-name="Capa 1" xmlns="http://www.w3.org/2000/svg" viewBox="0 0 106.91 125.82"><defs><style>.cls-1{fill:#2e4a39;}.cls-2{fill:#b58e6e;}.cls-3{fill:#527150;}.cls-4{fill:#7f9d78;}.cls-5{fill:#a2c77a;}</style></defs><path class="cls-1" d="M234.92,214.06c.26-.49.71-.26,1.07-.26,6.54,0,13.08,0,19.62,0A22.18,22.18,0,0,1,270.7,252.4c-.89.75-.93,1.1,0,1.9a21.59,21.59,0,0,1,4.22,27.6c-4.31,7.14-10.77,10.65-19,11-3.9.15-7.81,0-11.72,0a6.58,6.58,0,0,1,.46-.67,16.67,16.67,0,0,0,3.89-11.35,68.61,68.61,0,0,0,8.24-.2,10.53,10.53,0,0,0,9-12.43,10.63,10.63,0,0,0-10.33-8.17c-3.78-.06-7.57,0-11.35,0l-15.18.05a29.9,29.9,0,0,1,.2-5.35c2.39-4.7,6.39-6.48,11.47-6.43,4.7,0,9.41.07,14.11,0,8.9-.18,12.92-9,10.84-15.15a11.31,11.31,0,0,0-10.33-7.55,58.94,58.94,0,0,1-7.4-.16C242.88,222.36,239,218.05,234.92,214.06Z" transform="translate(-186.54 -204.01)"/><path class="cls-2" d="M243.07,280.88a16.72,16.72,0,0,1-3.9,11.35c-.17.2-.3.44-.46.67a27.07,27.07,0,0,1-16.2-4.46c-5.94-4-9.06-9.89-10.36-16.83a39.17,39.17,0,0,1-.53-7c0-.88.21-1.17,1.13-1.15,2.83,0,5.66,0,8.49,0a2.44,2.44,0,0,0,2.2,0c1.67,0,3.34,0,5,0a13.85,13.85,0,0,1,10.07,4.29A16.55,16.55,0,0,1,243.07,280.88Z" transform="translate(-186.54 -204.01)"/><path class="cls-3" d="M223.44,263.42a2.44,2.44,0,0,1-2.2,0c0-5.66,0-11.33,0-17,0-1-.32-1.24-1.22-1.39a19,19,0,0,1-15.82-18.62c0-.85.13-1.2,1.1-1.1a18.23,18.23,0,0,1,9.29,3.77,19.44,19.44,0,0,1,6.68,9.19v-6.7c1.53-.35,1.53-.35,2.12-1.2v10.7l.35.06a20.93,20.93,0,0,1,5-6.46c4.33-3.68,9.42-4.81,15-4.49.63,0,.79.26.62.92-2.15,8.39-8.66,14.88-17.64,15.42-.52,0-1,0-1.55,0-1.73-.1-1.73-.11-1.73,1.68s0,3.59,0,5.38c0,.39-.12.81.19,1.15a29.9,29.9,0,0,0-.2,5.35C223.43,261.21,223.43,262.32,223.44,263.42Z" transform="translate(-186.54 -204.01)"/><path class="cls-4" d="M223.42,230.38c-.59.85-.59.85-2.12,1.2-.09-.73-.71-1-1.19-1.41-4-3.36-7.2-7.3-8.29-12.59a21.61,21.61,0,0,1,1.44-13.08c.18-.43.35-.69.86-.31,5.61,4.19,9.48,9.44,10,16.64A42.59,42.59,0,0,1,223.42,230.38Z" transform="translate(-186.54 -204.01)"/><path d="M196.77,317.16c2.16.91,3.06,2.09,3,3.85a4.2,4.2,0,0,1-3.11,3.82,6.86,6.86,0,0,1-2.46.4c-2.27,0-4.55,0-6.82,0-.69,0-.86-.2-.86-.87q0-6.76,0-13.52c0-.7.12-1,.9-1,2.15.05,4.31,0,6.46,0a6.21,6.21,0,0,1,2.78.59,3.59,3.59,0,0,1,.68,6.2Zm-4.43,5.4a7.23,7.23,0,0,0,3.15-.36c.62-.31,1.16-.71,1.14-1.52a1.67,1.67,0,0,0-1.14-1.53,3.77,3.77,0,0,0-1.62-.37,26.91,26.91,0,0,1-3,0c-1-.11-1.24.31-1.22,1.27C189.73,322.57,189.68,322.57,192.34,322.56Zm-.19-9.95v0a11.36,11.36,0,0,1-1.43,0c-.82-.11-1.06.23-1,1s0,1.28,0,1.91c0,.27-.06.67.33.65,1.61-.07,3.27.33,4.81-.46a1.54,1.54,0,0,0,.82-1.71,1.38,1.38,0,0,0-1.27-1.23C193.67,312.67,192.91,312.66,192.15,312.61Z" transform="translate(-186.54 -204.01)"/><path d="M236.74,315.21c0-2.07,1.51-1,2.35-1.19,1.06-.2.7.73.71,1.22,0,2.71.07,5.42,0,8.13-.07,4.93-3,7.24-7.88,6.21a13.1,13.1,0,0,1-2.05-.62c-1.71-.68-1.66-.68-.87-2.31.35-.7.6-.82,1.3-.37a5.66,5.66,0,0,0,3.63.94c2.09-.18,3.05-1.41,2.79-3.54-2.95,1.92-5.86,1.74-7.73-.46a6,6,0,0,1,.08-7.61C231.12,313.42,233.93,313.23,236.74,315.21Zm.1,4.39a3,3,0,0,0-3-3.19,3.09,3.09,0,0,0-3,3.07,2.8,2.8,0,0,0,2.94,2.91A2.83,2.83,0,0,0,236.84,319.6Z" transform="translate(-186.54 -204.01)"/><path d="M259,315.19a4.89,4.89,0,0,1,4-1.34,3.88,3.88,0,0,1,3.58,3.71c.13,2.31.07,4.62.12,6.94,0,.57-.2.73-.76.75-2.33.12-2.33.14-2.32-2.22,0-1.16,0-2.31,0-3.47,0-2-.88-3.13-2.36-3.12s-2.55,1.27-2.54,3.25c0,1.52,0,3,0,4.55,0,.74-.15,1-1,1-2,0-2,0-2-2,0-4.27,0-8.54,0-12.81,0-.86.26-1.06,1.08-1,2,0,2,0,2,2,0,1.16,0,2.32,0,3.47C258.81,315,258.87,315,259,315.19Z" transform="translate(-186.54 -204.01)"/><path d="M278.29,320.5c-1.07,0-2.15,0-3.22,0-.3,0-.7-.15-.88.19s.14.67.35.95a3.49,3.49,0,0,0,4.9.57c1.2-1,1.37.27,1.88.68.77.6,0,.94-.37,1.25a6.31,6.31,0,0,1-8.38-.49,5.85,5.85,0,0,1,7.93-8.57c1.58,1.25,2,3,2,4.9,0,.56-.38.5-.74.5h-3.46Zm-1.56-1.9v0c.72,0,1.43,0,2.15,0s.68-.24.46-.72a2.75,2.75,0,0,0-2.29-1.69,2.47,2.47,0,0,0-2.47,1.13c-.24.35-.65.72-.41,1.16s.66.12,1,.14Z" transform="translate(-186.54 -204.01)"/><path d="M217.79,325.48a5.88,5.88,0,1,1,.11-11.75,5.88,5.88,0,1,1-.11,11.75Zm3.09-5.87a3,3,0,0,0-3.08-3.24,3.15,3.15,0,0,0-3,3.26,3.06,3.06,0,0,0,3.14,3.19A2.94,2.94,0,0,0,220.88,319.61Z" transform="translate(-186.54 -204.01)"/><path d="M245.33,319.52c0-.6,0-1.2,0-1.79,0-.83,0-1.56-1.14-1.29-.19,0-.44,0-.45-.26,0-.51,0-1,0-1.55,0-.91.69-.56,1.13-.61.65-.08.45-.56.46-.91.09-2.06.08-2,2.12-2,.66,0,.88.18.88.87,0,2,0,2,2.06,2,.35,0,.92-.26,1,.28a3.36,3.36,0,0,1-.08,2c-.21.44-1,.21-1.56.14-1.2-.17-1.61.23-1.47,1.46s0,2.23,0,3.35c0,1.43.7,2,2.08,1.58,1-.32.9.37,1.12.85s.38.95-.37,1.33c-3.08,1.54-5.8-.07-5.83-3.51,0-.63,0-1.27,0-1.91Z" transform="translate(-186.54 -204.01)"/><path class="cls-5" d="M234.92,214.06c4.12,4,8,8.3,12.88,11.38-4.92.71-9-1.05-11.6-5.35A8.82,8.82,0,0,1,234.92,214.06Z" transform="translate(-186.54 -204.01)"/><path d="M204.2,317.44c0-2.31,0-4.62,0-6.93,0-.81.26-1,1-1,2,0,2,0,2,2,0,4.18,0,8.37,0,12.55,0,.86-.16,1.18-1.1,1.15-1.93-.06-1.93,0-1.92-1.95s0-3.91,0-5.86Z" transform="translate(-186.54 -204.01)"/><path d="M289.43,315.63a6.75,6.75,0,0,1,3-1.85c.64-.14,1.13-.13,1,.75a3.37,3.37,0,0,0,0,.71c.07.88,0,1.43-1.2,1.43a2.7,2.7,0,0,0-2.69,2.92c-.05,1.55,0,3.11,0,4.66,0,.75-.16,1-1,1-2,0-2,0-2-2,0-2.75,0-5.5,0-8.25,0-.84.24-1.17,1.06-1.05a.65.65,0,0,0,.24,0C288.89,313.86,289.8,313.89,289.43,315.63Z" transform="translate(-186.54 -204.01)"/></svg>