<svg id="Capa_1" data-name="Capa 1" xmlns="http://www.w3.org/2000/svg" viewBox="0 0 192.98 88.95"><defs><style>.cls-1{fill:#2e4a39;}.cls-2{fill:#b58e6e;}.cls-3{fill:#527150;}.cls-4{fill:#7f9d78;}.cls-5{fill:#a2c77a;}</style></defs><path class="cls-1" d="M234.92,214.06c.26-.49.71-.26,1.07-.26,6.54,0,13.08,0,19.62,0A22.18,22.18,0,0,1,270.7,252.4c-.89.75-.93,1.1,0,1.9a21.59,21.59,0,0,1,4.22,27.6c-4.31,7.14-10.77,10.65-19,11-3.9.15-7.81,0-11.72,0a6.58,6.58,0,0,1,.46-.67,16.67,16.67,0,0,0,3.89-11.35,68.61,68.61,0,0,0,8.24-.2,10.53,10.53,0,0,0,9-12.43,10.63,10.63,0,0,0-10.33-8.17c-3.78-.06-7.57,0-11.35,0l-15.18.05a29.9,29.9,0,0,1,.2-5.35c2.39-4.7,6.39-6.48,11.47-6.43,4.7,0,9.41.07,14.11,0,8.9-.18,12.92-9,10.84-15.15a11.31,11.31,0,0,0-10.33-7.55,58.94,58.94,0,0,1-7.4-.16C242.88,222.36,239,218.05,234.92,214.06Z" transform="translate(-204.23 -204.01)"/><path class="cls-2" d="M243.07,280.88a16.72,16.72,0,0,1-3.9,11.35c-.17.2-.3.44-.46.67a27.07,27.07,0,0,1-16.2-4.46c-5.94-4-9.06-9.89-10.36-16.83a39.17,39.17,0,0,1-.53-7c0-.88.21-1.17,1.13-1.15,2.83,0,5.66,0,8.49,0a2.44,2.44,0,0,0,2.2,0c1.67,0,3.34,0,5,0a13.85,13.85,0,0,1,10.07,4.29A16.55,16.55,0,0,1,243.07,280.88Z" transform="translate(-204.23 -204.01)"/><path class="cls-3" d="M223.44,263.42a2.44,2.44,0,0,1-2.2,0c0-5.66,0-11.33,0-17,0-1-.32-1.24-1.22-1.39a19,19,0,0,1-15.82-18.62c0-.85.13-1.2,1.1-1.1a18.23,18.23,0,0,1,9.29,3.77,19.44,19.44,0,0,1,6.68,9.19v-6.7c1.53-.35,1.53-.35,2.12-1.2v10.7l.35.06a20.93,20.93,0,0,1,5-6.46c4.33-3.68,9.42-4.81,15-4.49.63,0,.79.26.62.92-2.15,8.39-8.66,14.88-17.64,15.42-.52,0-1,0-1.55,0-1.73-.1-1.73-.11-1.73,1.68s0,3.59,0,5.38c0,.39-.12.81.19,1.15a29.9,29.9,0,0,0-.2,5.35C223.43,261.21,223.43,262.32,223.44,263.42Z" transform="translate(-204.23 -204.01)"/><path class="cls-4" d="M223.42,230.38c-.59.85-.59.85-2.12,1.2-.09-.73-.71-1-1.19-1.41-4-3.36-7.2-7.3-8.29-12.59a21.61,21.61,0,0,1,1.44-13.08c.18-.43.35-.69.86-.31,5.61,4.19,9.48,9.44,10,16.64A42.59,42.59,0,0,1,223.42,230.38Z" transform="translate(-204.23 -204.01)"/><path class="cls-5" d="M234.92,214.06c4.12,4,8,8.3,12.88,11.38-4.92.71-9-1.05-11.6-5.35A8.82,8.82,0,0,1,234.92,214.06Z" transform="translate(-204.23 -204.01)"/><path d="M300.52,250.89c2.15.91,3.05,2.1,3,3.86a4.23,4.23,0,0,1-3.11,3.82A7.14,7.14,0,0,1,298,259c-2.27,0-4.54,0-6.81,0-.7,0-.86-.2-.86-.88q0-6.75,0-13.52c0-.69.13-1,.91-1,2.15.06,4.3,0,6.46,0a6.22,6.22,0,0,1,2.78.6,3.58,3.58,0,0,1,.67,6.19Zm-4.44,5.4a7.41,7.41,0,0,0,3.16-.35c.62-.32,1.15-.71,1.13-1.53a1.67,1.67,0,0,0-1.13-1.53,3.76,3.76,0,0,0-1.62-.36c-1,0-2,.06-3,0s-1.25.3-1.23,1.26C293.47,256.3,293.43,256.3,296.08,256.29Zm-.18-10v0a9.87,9.87,0,0,1-1.44,0c-.82-.11-1.06.23-1,1,0,.63,0,1.27,0,1.91,0,.26-.07.66.32.65,1.61-.07,3.28.32,4.82-.47a1.53,1.53,0,0,0,.82-1.7,1.38,1.38,0,0,0-1.27-1.23C297.41,246.4,296.65,246.4,295.9,246.34Z" transform="translate(-204.23 -204.01)"/><path d="M340.49,248.94c0-2.07,1.51-1,2.35-1.19,1.06-.2.7.73.7,1.22,0,2.71.08,5.43,0,8.14-.06,4.92-3,7.24-7.88,6.21a12.44,12.44,0,0,1-2.05-.63c-1.7-.67-1.66-.67-.86-2.3.35-.71.6-.83,1.29-.38a5.65,5.65,0,0,0,3.64.94c2.09-.18,3-1.41,2.78-3.53-2.94,1.91-5.85,1.73-7.73-.47a6,6,0,0,1,.09-7.61C334.86,247.15,337.67,247,340.49,248.94Zm.1,4.39a3.05,3.05,0,0,0-3-3.19,3.11,3.11,0,0,0-3,3.08,3,3,0,0,0,6,.11Z" transform="translate(-204.23 -204.01)"/><path d="M362.71,248.93a4.88,4.88,0,0,1,4-1.35,3.88,3.88,0,0,1,3.58,3.72c.14,2.3.08,4.62.13,6.93,0,.58-.2.73-.77.76-2.32.11-2.32.13-2.31-2.23,0-1.15,0-2.31,0-3.47,0-2-.87-3.13-2.35-3.12s-2.56,1.28-2.54,3.26c0,1.51,0,3,0,4.54,0,.75-.15,1-1,1-2,0-2,0-2-2,0-4.27,0-8.53,0-12.8,0-.86.25-1.06,1.07-1.05,2,0,2,0,2,2,0,1.15,0,2.31,0,3.47C362.56,248.68,362.62,248.75,362.71,248.93Z" transform="translate(-204.23 -204.01)"/><path d="M382,254.24c-1.08,0-2.15,0-3.23,0-.3,0-.7-.15-.87.18s.14.67.35.95a3.49,3.49,0,0,0,4.9.58c1.2-1,1.36.27,1.88.67.76.61,0,.94-.37,1.26a6.33,6.33,0,0,1-8.38-.49,5.85,5.85,0,0,1,7.92-8.58c1.59,1.25,2,3,2,4.9,0,.57-.38.5-.74.5H382Zm-1.56-1.91v0c.71,0,1.43,0,2.14,0s.69-.24.46-.72a2.74,2.74,0,0,0-2.29-1.69,2.51,2.51,0,0,0-2.47,1.13c-.23.35-.65.73-.4,1.16s.66.13,1,.14C379.44,252.35,380,252.33,380.48,252.33Z" transform="translate(-204.23 -204.01)"/><path d="M321.54,259.21a5.88,5.88,0,1,1,.11-11.74,5.88,5.88,0,1,1-.11,11.74Zm3.09-5.87a3,3,0,0,0-3.08-3.23,3.14,3.14,0,0,0-3,3.25,3,3,0,0,0,3.13,3.19A2.94,2.94,0,0,0,324.63,253.34Z" transform="translate(-204.23 -204.01)"/><path d="M349.08,253.26c0-.6,0-1.2,0-1.8.05-.83.05-1.56-1.14-1.29-.19,0-.43,0-.44-.25,0-.52,0-1,0-1.56,0-.9.68-.56,1.12-.61.65-.07.45-.55.47-.91.08-2.06.08-2,2.11-2,.67,0,.89.17.89.86,0,2,0,2,2.05,2,.35,0,.93-.26,1,.29a3.53,3.53,0,0,1-.08,2c-.22.43-1,.21-1.56.14-1.21-.17-1.61.23-1.48,1.46s0,2.23,0,3.34c0,1.44.7,2,2.07,1.59,1-.32.9.36,1.12.85s.39.95-.36,1.32c-3.08,1.54-5.8-.06-5.83-3.5,0-.64,0-1.28,0-1.91Z" transform="translate(-204.23 -204.01)"/><path d="M308,251.18c0-2.31,0-4.62,0-6.93,0-.82.26-1,1-1,2,0,2,0,2,2,0,4.18,0,8.36,0,12.54,0,.86-.16,1.19-1.1,1.16-1.93-.06-1.93,0-1.92-2v-5.85Z" transform="translate(-204.23 -204.01)"/><path d="M393.18,249.36a6.79,6.79,0,0,1,3-1.85c.64-.13,1.12-.13,1,.75a2.89,2.89,0,0,0,0,.72c.07.87,0,1.42-1.2,1.42a2.72,2.72,0,0,0-2.69,2.92c0,1.56,0,3.11,0,4.67,0,.75-.16,1-1,1-2,0-2,0-2-2,0-2.75,0-5.5,0-8.25,0-.85.24-1.17,1.06-1.05a1,1,0,0,0,.24,0C392.64,247.59,393.54,247.63,393.18,249.36Z" transform="translate(-204.23 -204.01)"/></svg>